# AST/ASF file generated using VICON BodyLanguage
# -----------------------------------------------
:version 1.10
:name VICON
:units
  mass 1.0
  length 0.45
  angle deg
:documentation
   .ast/.asf automatically generated from VICON data using
   VICON BodyBuilder and BodyLanguage model FoxedUp or BRILLIANT.MOD
:root
   order TX TY TZ RX RY RZ
   axis XYZ
   position 0 0 0  
   orientation 0 0 0 
:bonedata
  begin
     id 1 
     name lhipjoint
     direction 0.528046 -0.759594 0.379717 
     length 2.39752 
     axis 0 0 0  XYZ
  end
  begin
     id 2 
     name lfemur
     direction 0.34202 -0.939693 0  
     length 7.31175  
     axis 0 0 20  XYZ
    dof rx ry rz
    limits (-160.0 20.0)
           (-70.0 70.0)
           (-60.0 70.0)
  end
  begin
     id 3 
     name ltibia
     direction 0.34202 -0.939693 0   
     length 7.52482   
     axis 0 0 20   XYZ
    dof rx
    limits (-10.0 170.0)
  end
  begin
     id 4 
     name lfoot
     direction 0.0675379 -0.185559 0.980309   
     length 2.00961   
     axis -90 7.62852e-016 20   XYZ
    dof rx rz
    limits (-45.0 90.0)
           (-70.0 20.0)
  end
  begin
     id 5 
     name ltoes
     direction 1.5352e-011 -4.22286e-011 1   
     length 1.01383   
     axis -90 7.62852e-016 20   XYZ
    dof rx
    limits (-90.0 20.0)
  end
  begin
     id 6 
     name rhipjoint
     direction -0.510274 -0.769251 0.384544   
     length 2.36742  
     axis 0 0 0  XYZ 
  end
  begin
     id 7 
     name rfemur
     direction -0.34202 -0.939693 0   
     length 7.45325   
     axis 0 0 -20   XYZ
    dof rx ry rz
    limits (-160.0 20.0)
           (-70.0 70.0)
           (-70.0 60.0)
  end
  begin
     id 8 
     name rtibia
     direction -0.34202 -0.939693 0   
     length 7.49587   
     axis 0 0 -20   XYZ
    dof rx
    limits (-10.0 170.0)
 end
 begin
     id 9 
     name rfoot
     direction -0.106475 -0.292536 0.950308   
     length 2.20898  
     axis -90 -7.62852e-016 -20   XYZ
    dof rx rz
    limits (-45.0 90.0)
           (-20.0 70.0)
  end
  begin
     id 10 
     name rtoes
     direction -1.53597e-011 -4.22023e-011 1   
     length 1.10065   
     axis -90 -7.62852e-016 -20   XYZ
    dof rx
    limits (-90.0 20.0)
  end
  begin
     id 11 
     name lowerback
     direction 0.0260024 0.998026 -0.0571652   
     length 2.11214   
     axis 0 0 0   XYZ
    dof rx ry rz
    limits (-20.0 45.0)
           (-30.0 30.0)
           (-30.0 30.0)
  end
  begin
     id 12 
     name upperback
     direction 0.0216202 0.999542 -0.0211766   
     length 2.11689   
     axis 0 0 0   XYZ
    dof rx ry rz
    limits (-20.0 45.0)
           (-30.0 30.0)
           (-30.0 30.0)
  end
  begin
     id 13 
     name thorax
     direction 0.00883312 0.999944 0.00589057   
     length 2.11821   
     axis 0 0 0   XYZ
    dof rx ry rz
    limits (-20.0 45.0)
           (-30.0 30.0)
           (-30.0 30.0)
  end
  begin
     id 14 
     name lowerneck
     direction -0.059386 0.994433 0.0870401   
     length 1.81176   
     axis 0 0 0   XYZ
    dof rx ry rz
    limits (-20.0 45.0)
           (-30.0 30.0)
           (-30.0 30.0)
  end
  begin
     id 15 
     name upperneck
     direction 0.0506457 0.97328 -0.223967   
     length 1.82382   
     axis 0 0 0   XYZ
    dof rx ry rz
    limits (-20.0 45.0)
           (-30.0 30.0)
           (-30.0 30.0)
  end
  begin
     id 16
     name head
     direction 0.0205902 0.996147 -0.0852487  
     length 1.84805  
     axis 0 0 0   XYZ
    dof rx ry rz
    limits (-20.0 45.0)
           (-30.0 30.0)
           (-30.0 30.0)
  end
  begin
     id 17 
     name lclavicle
     direction 0.949493 0.303881 -0.0782325  
     length 3.60584  
     axis 0 0 0   XYZ
    dof ry rz
    limits (-20.0 10.0)
           (0.0 20.0)
  end
  begin
     id 18 
     name lhumerus
     direction 1 -4.48965e-011 1.48782e-027   
     length 4.95681   
     axis 180 -30 -90   XYZ
    dof rx ry rz
    limits (-60.0 90.0)
           (-90.0 90.0)
           (-90.0 90.0)
  end
  begin
     id 19
     name lradius
     direction 1 -4.48952e-011 2.06528e-027   
     length 3.40915   
     axis 180 -30 -90   XYZ
    dof rx
    limits (-10.0 170.0)
  end
  begin
     id 20
     name lwrist
     direction 1 -4.48964e-011 1.28021e-027   
     length 1.70457   
     axis -1.61767e-015 90 90   XYZ
    dof ry
    limits (-180.0 0.0)
 end
  begin
     id 21 
     name lhand
     direction 1 -4.49094e-011 2.54887e-027   
     length 0.616403   
     axis -1.63363e-015 90 90   XYZ
    dof rx rz
    limits (-90.0 90.0)
           (-45.0 45.0)
  end
  begin
     id 22 
     name lfingers
     direction 1 -4.49002e-011 5.11407e-027   
     length 0.49696   
     axis -3.26723e-015 90 90   XYZ
    dof rx
    limits (0.0 90.0)
  end
  begin
     id 23
     name lthumb
     direction 0.707107 -6.34998e-011 0.707107   
     length 0.713539   
     axis -90 45 -2.25915e-014   XYZ
    dof rx rz
    limits (-45.0 45.0)
           (-45.0 45.0)
  end
  begin
     id 24 
     name rclavicle
     direction -0.937751 0.334612 -0.0930482   
     length 3.46287  
     axis 0 0 0   XYZ 
    dof ry rz
    limits (-10.0 20.0)
           (-20.0 0.0)
  end
  begin
     id 25 
     name rhumerus
     direction -1 -4.48962e-011 3.59972e-027  
     length 5.352   
     axis 180 30 90   XYZ
    dof rx ry rz
    limits (-90.0 60.0)
           (-90.0 90.0)
           (-90.0 90.0)
  end
  begin
     id 26 
     name rradius
     direction -1 -4.48987e-011 -3.76925e-027   
     length 3.43721   
     axis 180 30 90   XYZ
    dof rx
    limits (-10.0 170.0)
  end
  begin
     id 27 
     name rwrist
     direction -1 -4.48943e-011 1.28112e-027   
     length 1.7186   
     axis -1.61767e-015 -90 -90   XYZ
    dof ry
    limits (-180.0 0.0)
  end
  begin
     id 28
     name rhand
     direction -1 -4.49027e-011 2.55483e-027   
     length 0.72009   
     axis -1.63363e-015 -90 -90   XYZ
    dof rx rz
    limits (-90.0 90.0)
           (-45.0 45.0)
  end
  begin
     id 29
     name rfingers
     direction -1 -4.48827e-011 5.14506e-027   
     length 0.580555   
     axis -3.26723e-015 -90 -90   XYZ
    dof rx
    limits (0.0 90.0)
  end
  begin
     id 30
     name rthumb
     direction -0.707107 -6.34936e-011 0.707107   
     length 0.833564   
     axis -90 -45 2.25915e-014   XYZ
    dof rx rz
    limits (-45.0 45.0)
           (-45.0 45.0)
  end
:hierarchy
  begin
    root lhipjoint rhipjoint lowerback
    lhipjoint lfemur
    lfemur ltibia
    ltibia lfoot
    lfoot ltoes
    rhipjoint rfemur
    rfemur rtibia
    rtibia rfoot
    rfoot rtoes
    lowerback upperback
    upperback thorax
    thorax lowerneck lclavicle rclavicle
    lowerneck upperneck
    upperneck head
    lclavicle lhumerus
    lhumerus lradius
    lradius lwrist
    lwrist lhand lthumb
    lhand lfingers
    rclavicle rhumerus
    rhumerus rradius
    rradius rwrist
    rwrist rhand rthumb
    rhand rfingers
  end

#!OML:ASF H:\Terrain\Patient Classification 1\Terrain2\Thursday\justin.ASF
:FULLY-SPECIFIED
:DEGREES
649
root -1.55327 20.6622 -9.03088 177.746 12.5659 -176.685
lowerback 7.5218 0.235425 0.544353
upperback 2.93942 0.630447 2.50278
thorax -1.20512 0.406934 2.21792
lowerneck -9.91607 -5.4342 -8.80769
upperneck 41.7043 -2.58844 5.63993
head 17.2025 0.0316353 4.2745
rclavicle -7.8023e-015 9.14409e-015
rhumerus -39.3717 -7.17024 -78.8042
rradius 43.9087
rwrist -9.51856
rhand -18.3157 11.1115
rfingers 7.12502
rthumb 7.96561 -18.7184
lclavicle -7.8023e-015 9.14409e-015
lhumerus -40.3707 1.01776 82.2804
lradius 55.4636
lwrist 10.9729
lhand -20.5618 18.5489
lfingers 7.12502
lthumb 5.79741 48.4496
rfemur -21.0459 -18.919 15.8182
rtibia 102.693
rfoot -23.6981 -4.02774
rtoes -6.56052
lfemur -10.8578 0.767823 -18.5376
ltibia 26.1123
lfoot -6.88784 -4.98099
ltoes -1.21428
650
root -1.55878 20.656 -9.04232 178.057 12.6575 -176.537
lowerback 7.59866 0.163916 0.601668
upperback 2.87819 0.547756 2.63304
thorax -1.30864 0.367082 2.32682
lowerneck -9.78271 -5.42142 -9.30835
upperneck 41.7984 -2.55086 6.01957
head 17.2456 0.0213761 4.55807
rclavicle 1.20265e-014 1.31198e-014
rhumerus -39.1524 -6.64801 -78.8408
rradius 44.8423
rwrist -10.1629
rhand -18.632 10.8074
rfingers 7.12502
rthumb 7.6604 -19.0339
lclavicle 1.20265e-014 1.31198e-014
lhumerus -40.246 0.377886 82.3699
lradius 56.6023
lwrist 10.8016
lhand -20.3375 18.9741
lfingers 7.12502
lthumb 6.01403 48.8687
rfemur -22.3781 -19.4403 16.5837
rtibia 102.25
rfoot -23.141 -3.56129
rtoes -4.61789
lfemur -11.1542 0.880878 -18.4098
ltibia 26.1586
lfoot -7.20921 -4.92969
ltoes -3.41259
651
root -1.56349 20.6468 -9.0502 178.298 12.7775 -176.574
lowerback 7.67818 0.0421803 0.368231
upperback 2.8963 0.378922 2.76616
thorax -1.32954 0.283922 2.61081
lowerneck -9.86994 -5.34958 -9.44794
upperneck 41.8737 -2.33836 5.86804
head 17.2907 0.055799 4.55151
rclavicle 9.39258e-015 3.57812e-015
rhumerus -38.6964 -6.08153 -78.8761
rradius 45.6104
rwrist -10.4332
rhand -19.0135 10.5946
rfingers 7.12502
rthumb 7.29211 -19.2597
lclavicle 9.39258e-015 3.57812e-015
lhumerus -40.1407 0.210291 82.3404
lradius 57.8041
lwrist 10.6257
lhand -19.9778 19.0366
lfingers 7.12502
lthumb 6.3612 48.9211
rfemur -23.6187 -19.7522 17.0772
rtibia 101.695
rfoot -22.4027 -2.60951
rtoes 3.52924
lfemur -11.3653 1.02807 -18.4652
ltibia 26.1781
lfoot -7.4566 -4.88741
ltoes -5.3944
652
root -1.56731 20.6435 -9.06429 178.355 12.8829 -177.054
lowerback 7.82622 -0.0405118 -0.289897
upperback 3.06715 0.222035 2.66955
thorax -1.22885 0.203059 2.89623
lowerneck -10.444 -5.28746 -8.98784
upperneck 41.9616 -2.21135 5.41723
head 17.4514 0.0931328 4.2825
rclavicle 8.74653e-015 -1.47101e-014
rhumerus -37.9948 -5.94514 -79.034
rradius 46.324
rwrist -10.2373
rhand -19.0407 10.4874
rfingers 7.12502
rthumb 7.26588 -19.3678
lclavicle 8.74653e-015 -1.47101e-014
lhumerus -39.6243 -0.0464309 82.114
lradius 58.5951
lwrist 10.6951
lhand -20.1802 17.3901
lfingers 7.12502
lthumb 6.16586 47.2804
rfemur -24.6804 -19.871 17.0182
rtibia 100.931
rfoot -21.4465 -2.11865
rtoes 8.01125
lfemur -11.4537 1.16297 -19.0098
ltibia 26.1199
lfoot -7.49511 -4.8681
ltoes -3.65348
653
root -1.57036 20.6348 -9.07857 178.273 12.943 -177.756
lowerback 8.09608 -0.0404334 -1.00082
upperback 3.20865 0.161753 2.38271
thorax -1.22799 0.168408 3.00633
lowerneck -10.8657 -5.27267 -8.38589
upperneck 42.0162 -2.26609 5.13667
head 17.5709 0.111115 4.03471
rclavicle -3.60297e-014 7.95139e-016
rhumerus -37.5204 -6.10292 -79.2369
rradius 47.0615
rwrist -10.0826
rhand -19.2209 10.9239
rfingers 7.12502
rthumb 7.09188 -18.9373
lclavicle -3.60297e-014 7.95139e-016
lhumerus -39.0246 -0.802289 81.8043
lradius 59.2521
lwrist 10.7563
lhand -20.478 16.7266
lfingers 7.12502
lthumb 5.87838 46.6251
rfemur -25.6769 -19.9865 16.6895
rtibia 100.013
rfoot -21.7666 -0.757977
rtoes 0.307329
lfemur -11.4164 1.24083 -19.7703
ltibia 26.0461
lfoot -7.48305 -4.92163
ltoes -1.32008
654
root -1.57699 20.6176 -9.09253 178.368 13.0257 -177.953
lowerback 8.22816 -0.0412651 -1.08933
upperback 3.14326 0.145089 2.27392
thorax -1.36737 0.158869 2.94529
lowerneck -10.3638 -5.23101 -8.247
upperneck 41.8548 -2.27349 5.15389
head 17.3391 0.139906 3.99922
rclavicle -3.43897e-014 8.34896e-015
rhumerus -37.5697 -6.01208 -79.2428
rradius 47.8437
rwrist -10.2656
rhand -19.7928 11.4541
rfingers 7.12502
rthumb 6.53985 -18.4249
lclavicle -3.43897e-014 8.34896e-015
lhumerus -38.7959 -1.63235 81.6208
lradius 59.8901
lwrist 10.659
lhand -20.3417 17.3527
lfingers 7.12502
lthumb 6.00998 47.2475
rfemur -26.699 -20.1754 17
rtibia 98.8931
rfoot -21.2944 -0.25401
rtoes -4.11251
lfemur -11.4488 1.07708 -19.9399
ltibia 26.0471
lfoot -7.59496 -4.99622
ltoes 1.60141
655
root -1.5847 20.5996 -9.11183 178.581 13.1852 -177.956
lowerback 8.22453 -0.226331 -1.21384
upperback 3.05418 -0.108317 2.45267
thorax -1.44098 0.0316097 3.22508
lowerneck -9.98352 -5.04605 -8.75481
upperneck 41.8975 -1.8734 5.28537
head 17.2433 0.247678 4.21991
rclavicle 1.69961e-014 -7.15625e-015
rhumerus -37.3646 -5.17003 -79.1501
rradius 48.386
rwrist -10.5236
rhand -20.2809 12.0528
rfingers 7.12502
rthumb 6.06859 -17.8403
lclavicle 1.69961e-014 -7.15625e-015
lhumerus -38.8194 -1.44917 81.5229
lradius 60.4439
lwrist 10.4502
lhand -20.2508 17.1059
lfingers 7.12502
lthumb 6.09766 46.9981
rfemur -27.5688 -20.2676 17.5206
rtibia 97.5458
rfoot -20.4396 0.233083
rtoes -3.98877
lfemur -11.6544 0.887221 -19.8961
ltibia 26.1913
lfoot -7.75565 -5.08307
ltoes 5.76477
656
root -1.58717 20.5928 -9.13524 178.736 13.4107 -178.108
lowerback 8.23063 -0.366566 -1.51148
upperback 3.08424 -0.316553 2.49354
thorax -1.39661 -0.0744101 3.4554
lowerneck -10.0918 -4.91461 -8.96379
upperneck 42.0823 -1.60557 5.36707
head 17.3573 0.330482 4.35573
rclavicle -3.27995e-015 -3.53837e-014
rhumerus -36.8969 -4.65707 -79.2286
rradius 48.9071
rwrist -10.6425
rhand -20.3875 12.4951
rfingers 7.12502
rthumb 5.96574 -17.4009
lclavicle -3.27995e-015 -3.53837e-014
lhumerus -38.8331 -1.14027 81.2213
lradius 61.2175
lwrist 10.0142
lhand -20.1223 16.6798
lfingers 7.12502
lthumb 6.22171 46.5684
rfemur -28.3 -20.1609 17.9005
rtibia 95.9808
rfoot -19.3981 0.699096
rtoes -4.72147
lfemur -11.955 1.157 -20.0769
ltibia 26.5441
lfoot -8.18185 -5.09827
ltoes 5.11815
657
root -1.58833 20.5918 -9.15389 178.951 13.6165 -178.158
lowerback 8.20121 -0.436486 -1.59047
upperback 3.2148 -0.414334 2.3805
thorax -1.23853 -0.124732 3.39055
lowerneck -10.3674 -4.80904 -8.6082
upperneck 42.0689 -1.5715 5.35353
head 17.4018 0.379449 4.28714
rclavicle 1.70458e-014 -2.94201e-014
rhumerus -36.4311 -4.539 -79.5252
rradius 49.6819
rwrist -10.7536
rhand -20.5193 12.2611
rfingers 7.12502
rthumb 5.83849 -17.6384
lclavicle 1.70458e-014 -2.94201e-014
lhumerus -38.5149 -1.17795 80.6912
lradius 61.9509
lwrist 9.63106
lhand -19.684 16.9112
lfingers 7.12502
lthumb 6.64485 46.787
rfemur -29.0806 -19.9529 18.4385
rtibia 94.2548
rfoot -18.2444 0.767376
rtoes -3.69316
lfemur -12.4114 1.40255 -20.1793
ltibia 27.081
lfoot -8.71904 -4.94631
ltoes 2.01669
658
root -1.59058 20.5844 -9.16758 179.315 13.7636 -177.931
lowerback 8.20519 -0.462976 -1.33278
upperback 3.26982 -0.426872 2.33354
thorax -1.18629 -0.128552 3.19675
lowerneck -10.774 -4.79114 -8.02789
upperneck 42.1998 -1.5908 5.08991
head 17.5648 0.417319 4.067
rclavicle -3.52843e-014 7.55382e-015
rhumerus -36.137 -4.64616 -79.7315
rradius 50.5096
rwrist -10.7689
rhand -20.8547 11.8134
rfingers 7.12502
rthumb 5.51463 -18.0949
lclavicle -3.52843e-014 7.55382e-015
lhumerus -38.0027 -1.52659 80.2774
lradius 62.3158
lwrist 9.61269
lhand -19.5919 16.9828
lfingers 7.12502
lthumb 6.73378 46.8557
rfemur -29.8917 -19.6776 19.2883
rtibia 92.3672
rfoot -17.8097 0.740537
rtoes -2.26268
lfemur -12.9823 1.37617 -19.9486
ltibia 27.6664
lfoot -8.97314 -4.82595
ltoes 0.684497
659
root -1.59236 20.5715 -9.18081 179.751 13.9215 -177.543
lowerback 8.26105 -0.543813 -1.05701
upperback 3.15302 -0.50697 2.54116
thorax -1.33373 -0.16485 3.26499
lowerneck -10.9483 -4.7729 -7.90894
upperneck 42.479 -1.37013 4.72078
head 17.7503 0.481328 3.93423
rclavicle -8.74653e-015 -1.94809e-014
rhumerus -36.0216 -4.49318 -79.6003
rradius 51.1212
rwrist -10.6267
rhand -21.0188 11.8537
rfingers 7.12502
rthumb 5.35622 -18.0586
lclavicle -8.74653e-015 -1.94809e-014
lhumerus -37.9862 -1.50348 80.1525
lradius 62.7483
lwrist 9.56052
lhand -19.6391 17.069
lfingers 7.12502
lthumb 6.68821 46.9433
rfemur -30.5704 -19.3233 20.3049
rtibia 90.2908
rfoot -17.8021 0.556454
rtoes -1.43384
lfemur -13.558 1.39463 -19.4964
ltibia 28.2251
lfoot -9.11507 -4.87459
ltoes 2.01627
660
root -1.59252 20.5589 -9.19422 180.086 14.0787 -177.374
lowerback 8.24445 -0.635167 -1.05071
upperback 3.06907 -0.621816 2.7477
thorax -1.40127 -0.221219 3.4872
lowerneck -10.972 -4.73958 -8.04727
upperneck 42.6744 -1.13555 4.51367
head 17.8564 0.529607 3.91796
rclavicle -1.04362e-014 -3.57812e-015
rhumerus -35.8618 -4.30311 -79.3698
rradius 51.4977
rwrist -10.5672
rhand -21.1477 12.5879
rfingers 7.12502
rthumb 5.23176 -17.3275
lclavicle -1.04362e-014 -3.57812e-015
lhumerus -38.0383 -1.26551 80.053
lradius 63.1825
lwrist 9.32021
lhand -19.3628 17.3552
lfingers 7.12502
lthumb 6.95494 47.221
rfemur -31.0217 -19.0173 20.9757
rtibia 88.128
rfoot -17.5227 0.247069
rtoes 0.446613
lfemur -14.1118 1.5311 -19.2816
ltibia 28.7929
lfoot -9.32046 -5.04212
ltoes 4.19206
